<?xml version="1.0" encoding="UTF-8"?>
<svg width="28px" height="37px" viewBox="0 0 28 37" version="1.1" xmlns="http://www.w3.org/2000/svg" xmlns:xlink="http://www.w3.org/1999/xlink">
    <title>D6336A0F-CB41-4DA1-B5C2-A132BC9D6342</title>
    <g id="Reportes" stroke="none" stroke-width="1" fill="none" fill-rule="evenodd">
        <g id="Reportes-05" transform="translate(-1508.000000, -250.000000)">
            <g id="Group-2" transform="translate(1373.000000, 250.000000)">
                <g id="Group" transform="translate(89.000000, 0.000000)">
                    <g id="Pdf-icon" transform="translate(46.000000, 0.000000)">
                        <g id="pdf"></g>
                        <path d="M22.5728696,34.4288263 C22.5728696,35.1653933 21.9763478,35.7651518 21.2410435,35.7651518 L2.47130435,35.7651518 C1.73965217,35.7651518 1.14191304,35.1653933 1.14191304,34.4288263 L1.14191304,7.61925405 C1.14191304,6.88146557 1.73965217,6.28292855 2.47130435,6.28292855 L13.4010435,6.28292855 C13.8514783,6.28292855 14.4151304,6.42584454 14.9422609,6.64937979 C14.8144348,6.88635159 14.7328696,7.20272115 14.7328696,7.61925405 L14.7328696,11.6685402 C14.7328696,13.0366248 15.8431304,14.149415 17.2053913,14.149415 L21.2410435,14.149415 C21.6829565,14.149415 21.9787826,14.0529162 22.2027826,13.9295443 C22.4267826,14.4621201 22.5728696,15.031341 22.5728696,15.4857405 L22.5728696,34.4288263 Z M21.3932174,12.6310854 C21.476,12.7141477 21.5502609,12.8338551 21.6293913,12.937683 C21.6306087,12.9413475 21.6342609,12.9462335 21.6342609,12.9486765 C21.5721739,12.9743281 21.4528696,13.0048657 21.2398261,13.0048657 L17.2053913,13.0048657 C16.4688696,13.0048657 15.8735652,12.4038857 15.8735652,11.6685402 L15.8735652,7.61925405 C15.8735652,7.40549083 15.9027826,7.28334042 15.9283478,7.22470823 C15.932,7.22470823 15.9368696,7.22959424 15.9405217,7.23081575 C16.0427826,7.30899201 16.162087,7.38228226 16.2436522,7.46534454 L21.3932174,12.6310854 Z M22.2027826,11.8224497 L17.052,6.65548731 C16.2046957,5.80409894 14.6001739,5.1383792 13.4010435,5.1383792 L2.47130435,5.1383792 C1.10904348,5.1383792 3.46389584e-13,6.25116945 3.46389584e-13,7.61925405 L3.46389584e-13,34.4288263 C3.46389584e-13,35.7969109 1.10904348,36.9097012 2.47130435,36.9097012 L21.2410435,36.9097012 C22.6033043,36.9097012 23.7135652,35.7969109 23.7135652,34.4288263 L23.7135652,15.4857405 C23.7135652,14.3998234 23.1718261,12.9902076 22.4462609,12.0997311 C22.3768696,12.0093398 22.2977391,11.917727 22.2027826,11.8224497 L22.2027826,11.8224497 Z" id="Fill-5" fill="#171D49"></path>
                        <path d="M7.42822749,30.6526808 L6.45131626,30.6526808 L6.45131626,32.1482242 C6.45131626,32.362046 6.40103456,32.5242117 6.30046967,32.6347263 C6.19990477,32.7452409 6.07300336,32.8004974 5.91976161,32.8004974 C5.75933666,32.8004974 5.63004088,32.7458415 5.53187039,32.6365282 C5.43369989,32.5272148 5.38461538,32.3668509 5.38461538,32.1554317 L5.38461538,28.083229 C5.38461538,27.8477849 5.43848863,27.679613 5.54623673,27.5787083 C5.65398483,27.4778037 5.82518202,27.4273521 6.05983345,27.4273521 L7.42822749,27.4273521 C7.83288147,27.4273521 8.1441491,27.4585841 8.3620397,27.5210488 C8.57753591,27.5811111 8.76369789,27.680813 8.92053124,27.8201575 C9.07736459,27.959502 9.19648431,28.1300764 9.27789399,28.3318856 C9.35930367,28.5336949 9.40000789,28.760727 9.40000789,29.0129886 C9.40000789,29.5511466 9.23479662,29.9589635 8.9043691,30.2364512 C8.57394159,30.513939 8.08189931,30.6526808 7.42822749,30.6526808 Z M7.16963334,28.2309815 L6.45131626,28.2309815 L6.45131626,29.8454477 L7.16963334,29.8454477 C7.42104558,29.8454477 7.63115123,29.8190207 7.79995659,29.7661659 C7.96876194,29.7133111 8.09745914,29.6268227 8.18605202,29.5066981 C8.2746449,29.3865735 8.31894068,29.2292127 8.31894068,29.0346109 C8.31894068,28.8015692 8.25070124,28.6117752 8.11422031,28.4652233 C7.96097857,28.3090613 7.64611939,28.2309815 7.16963334,28.2309815 Z M10.9515728,27.4273521 L12.3415164,27.4273521 C12.7030711,27.4273521 13.0131415,27.4609865 13.271737,27.5282563 C13.5303324,27.595526 13.7649803,27.7216549 13.9756877,27.9066468 C14.5240058,28.3775351 14.7981608,29.0934668 14.7981608,30.0544634 C14.7981608,30.3715923 14.7706256,30.6610882 14.7155543,30.9229597 C14.6604831,31.1848313 14.5754831,31.4208725 14.4605518,31.6310905 C14.3456205,31.8413085 14.1983669,32.0293007 14.0187868,32.1950726 C13.877517,32.3224046 13.7230804,32.424509 13.5554722,32.5013887 C13.3878641,32.5782684 13.207688,32.6323237 13.0149386,32.6635561 C12.8221892,32.6947885 12.6049005,32.7104044 12.3630659,32.7104044 L10.9731223,32.7104044 C10.7791757,32.7104044 10.6331194,32.6809743 10.5349489,32.6221133 C10.4367784,32.5632523 10.3727291,32.4803676 10.3427991,32.3734567 C10.312869,32.2665458 10.2979043,32.127804 10.2979043,31.9572271 L10.2979043,28.083229 C10.2979043,27.8525898 10.3493831,27.6856192 10.4523424,27.5823121 C10.5553017,27.4790049 10.7217102,27.4273521 10.9515728,27.4273521 Z M11.3646051,28.2742261 L11.3646051,31.8599267 L12.1727118,31.8599267 C12.3498976,31.8599267 12.4887709,31.8551218 12.5893358,31.8455118 C12.6899006,31.8359019 12.7940556,31.8118773 12.9018037,31.7734374 C13.0095518,31.7349976 13.1029321,31.6809423 13.1819473,31.6112701 C13.5387133,31.3085562 13.7170936,30.7872233 13.7170936,30.047256 C13.7170936,29.5259153 13.6386781,29.1355163 13.4818447,28.8760472 C13.3250114,28.6165782 13.1316663,28.4514093 12.9018037,28.3805358 C12.6719411,28.3096624 12.3941946,28.2742261 12.0685559,28.2742261 L11.3646051,28.2742261 Z M18.8817934,28.2526038 L16.7807159,28.2526038 L16.7807159,29.6039985 L18.5370012,29.6039985 C18.6998206,29.6039985 18.8213347,29.640636 18.9015471,29.7139119 C18.9817596,29.7871879 19.0218653,29.885088 19.0218653,30.0076151 C19.0218653,30.1301421 18.981161,30.2274416 18.8997514,30.2995163 C18.8183417,30.371591 18.6974262,30.4076279 18.5370012,30.4076279 L16.7807159,30.4076279 L16.7807159,32.1482242 C16.7807159,32.3692534 16.7310328,32.533221 16.6316652,32.6401319 C16.5322975,32.7470428 16.4047975,32.8004974 16.2491613,32.8004974 C16.0911308,32.8004974 15.9624336,32.7464422 15.8630659,32.63833 C15.7636982,32.5302179 15.7140151,32.366851 15.7140151,32.1482242 L15.7140151,28.083229 C15.7140151,27.9294696 15.7367616,27.8039413 15.7822552,27.7066404 C15.8277488,27.6093395 15.8989812,27.538467 15.9959545,27.4940209 C16.0929278,27.4495748 16.2168363,27.4273521 16.3676836,27.4273521 L18.8817934,27.4273521 C19.051796,27.4273521 19.1780988,27.4651908 19.2607057,27.5408693 C19.3433126,27.6165478 19.3846154,27.7156491 19.3846154,27.8381761 C19.3846154,27.9631057 19.3433126,28.0634082 19.2607057,28.1390867 C19.1780988,28.2147651 19.051796,28.2526038 18.8817934,28.2526038 Z" id="PDF" fill="#171D49"></path>
                        <path d="M23.1434609,8.48969788 L20.4652,5.45303866 L21.1834609,5.45303866 C21.4963304,5.45303866 21.7532,5.1965228 21.7532,4.88015323 L21.7532,1.14601516 L24.531287,1.14601516 L24.531287,4.88015323 C24.531287,5.1965228 24.7869391,5.45303866 25.1010261,5.45303866 L25.8205043,5.45303866 L23.1434609,8.48969788 Z M27.6076348,4.64440294 C27.515113,4.43919025 27.3118087,4.3072678 27.0878087,4.3072678 L25.6732,4.3072678 L25.6732,0.57312973 C25.6732,0.256760165 25.4187652,0.000244300822 25.1022435,0.000244300822 L21.1834609,0.000244300822 C20.8681565,0.000244300822 20.611287,0.256760165 20.611287,0.57312973 L20.611287,4.3072678 L19.199113,4.3072678 C18.9738957,4.3072678 18.7705913,4.43919025 18.6780696,4.64440294 C18.5867652,4.85083713 18.623287,5.08903043 18.7718087,5.25881951 L22.7149391,9.73196757 C22.8220696,9.85533948 22.979113,9.92618672 23.1434609,9.92618672 C23.3078087,9.92618672 23.4624174,9.85533948 23.5719826,9.73196757 L27.515113,5.25881951 C27.6636348,5.08903043 27.6989391,4.85083713 27.6076348,4.64440294 L27.6076348,4.64440294 Z" id="Fill-9" fill="#E54D4D"></path>
                    </g>
                </g>
            </g>
        </g>
    </g>
</svg>